<svg width="82" height="67" viewBox="0 0 82 67" fill="none" xmlns="http://www.w3.org/2000/svg">
<path d="M30.487 42.3258L30.5212 42.3537C30.487 42.3537 30.487 42.3258 30.487 42.3258ZM42.9075 33.4564C42.9075 34.2661 42.0535 34.9362 41.0629 34.9362C40.038 34.9362 39.2182 34.2661 39.2182 33.4564C39.2182 32.6187 40.038 31.9486 41.0629 31.9486C42.0535 31.9486 42.9075 32.6187 42.9075 33.4564ZM56.1995 33.4561C56.1995 30.1334 54.6281 27.1457 52.0318 24.912L55.9945 21.4217C59.718 24.5211 62.0409 28.7652 62.0409 33.4561C62.0409 42.9217 52.6467 50.6002 41.0663 50.6002C37.616 50.6002 34.2 49.9021 31.1597 48.5619L34.0292 44.4294C36.1813 45.3509 38.6067 45.8535 41.0663 45.8255C49.4356 45.8255 56.1995 40.297 56.1995 33.4561ZM30.487 42.3258L26.5244 45.816C22.5276 42.6888 20.068 38.305 20.068 33.4466C20.068 23.981 29.4964 16.3025 41.0427 16.3025C44.6979 16.3025 48.2506 17.0843 51.4275 18.5642L48.6264 22.7245C46.4059 21.6635 43.8097 21.0772 41.0427 21.0772C32.6733 21.0772 25.8754 26.6057 25.8754 33.4466C25.8754 36.9368 27.6517 40.0641 30.487 42.3258ZM62.8092 33.4488C62.8092 28.5904 60.3838 24.1788 56.5236 20.9677L60.5546 17.4216C65.5762 21.5262 68.719 27.1943 68.719 33.4488C68.719 45.902 56.3187 56.0377 41.0489 56.0377C36.3005 56.0377 31.8255 55.0604 27.897 53.3293L30.8006 49.1131C33.9434 50.5092 37.462 51.2351 41.0489 51.2072C53.0393 51.2072 62.8092 43.2495 62.8092 33.4488ZM13.4115 33.4371C13.4115 20.9839 25.8118 10.8482 41.0475 10.8482C45.9666 10.8482 50.6125 11.9093 54.6434 13.7801L51.8081 18.0242C48.6312 16.5164 44.9418 15.6787 41.0475 15.6787C29.0571 15.6787 19.3213 23.6365 19.3213 33.4371C19.3213 38.491 21.8833 43.0144 26.0168 46.2533L22.02 49.7994C16.7251 45.6949 13.4115 39.8871 13.4115 33.4371ZM29.4298 33.4413C29.4298 28.192 34.6222 23.9478 41.0444 23.9478C47.4666 23.9478 52.659 28.192 52.659 33.4413C52.659 38.6906 47.4666 42.9348 41.0444 42.9348C34.6222 42.9348 29.4298 38.6906 29.4298 33.4413ZM41.0403 42.5408C47.1892 42.5408 52.1767 38.4642 52.1767 33.4382C52.1425 28.4402 47.1892 24.3636 41.0403 24.3636C34.9255 24.3636 29.9381 28.4402 29.9381 33.4382C29.9381 38.4642 34.9255 42.5129 41.0403 42.5408ZM69.4623 33.4413C69.4623 27.0193 66.2512 21.1836 61.0588 16.9673L65.0898 13.4213C71.4437 18.531 75.4063 25.6232 75.4063 33.4413C75.4063 48.938 59.9998 61.5308 41.0406 61.5308C35.0967 61.5308 29.4943 60.2743 24.6094 58.0964L27.513 53.8523C31.544 55.6393 36.1557 56.6724 41.0406 56.6724C56.7204 56.6724 69.4623 46.2575 69.4623 33.4413ZM6.70574 33.4354C6.70574 17.9667 22.1122 5.37386 41.0714 5.37386C47.152 5.37386 52.891 6.6862 57.8443 8.9758L55.009 13.2199C50.8755 11.3212 46.1272 10.2323 41.0714 10.2323C25.3916 10.2323 12.6497 20.6472 12.6497 33.4634C12.6497 40.0529 16.0658 46.0283 21.4973 50.2445L17.4664 53.8185C10.8392 48.7088 6.70574 41.477 6.70574 33.4354ZM69.5655 9.50157C77.2175 15.5886 81.9658 24.0768 82 33.4865C82 51.9988 63.6215 66.9929 40.973 66.9929C33.8676 66.9929 27.1721 65.4851 21.3306 62.8884L24.2343 58.6442C29.2559 60.878 34.9607 62.1345 41.0755 62.1345C60.4104 62.1345 76.1585 49.2625 76.1585 33.4586C76.1585 25.4171 72.1276 18.1853 65.6029 12.9639L69.5655 9.50157ZM12.8786 57.8543C4.98746 51.7394 0.0341607 43.1115 0 33.5064V33.1713C0.239125 14.8266 18.4809 0.027922 40.9928 0H41.6419C48.679 0.0837659 55.272 1.6474 61.011 4.27206L58.2098 8.43244C53.154 6.08699 47.2784 4.74674 41.0611 4.74674C21.692 4.74674 5.94396 17.6188 5.94396 33.4505C5.94396 41.6317 10.1799 49.031 16.9437 54.2803L12.8786 57.8543Z" fill="#5BCD83"/>
</svg>
